<svg xmlns="http://www.w3.org/2000/svg" width="260" height="60" viewBox="0 0 260 60">
  <defs>
    <linearGradient id="gradient" x1="0%" y1="0%" x2="100%" y2="0%">
      <stop offset="0%" stop-color="#3B82F6" />
      <stop offset="100%" stop-color="#8B5CF6" />
    </linearGradient>
    <linearGradient id="pipeGradient" x1="0%" y1="0%" x2="100%" y2="0%">
      <stop offset="0%" stop-color="#3B82F6" />
      <stop offset="100%" stop-color="#8B5CF6" />
    </linearGradient>
  </defs>
  
  <!-- Pipeline elements -->
  <rect x="8" y="30" width="50" height="10" rx="5" fill="url(#pipeGradient)" />
  <circle cx="18" cy="35" r="7" fill="#F9FAFB" />
  <circle cx="33" cy="35" r="7" fill="#F9FAFB" />
  <circle cx="48" cy="35" r="7" fill="#F9FAFB" />
  
  <!-- Pigeon silhouette -->
  <path d="M50,25 C54,21 58,20 60,23 C62,26 63,24 65,22 C67,20 70,21 71,24 C72,27 69,32 65,34 C61,36 55,34 53,32 C51,30 48,28 50,25 Z" fill="url(#gradient)" />
  
  <!-- Little envelope -->
  <path d="M61,26 L63,28 L65,26" stroke="white" stroke-width="1" fill="none" />
  
  <!-- Brand name -->
  <text x="75" y="32" font-family="Arial, sans-serif" font-size="20" font-weight="bold" fill="#1E40AF">Pigeon Pipeline</text>
  <text x="75" y="48" font-family="Arial, sans-serif" font-size="12" fill="#4B5563">Email Copywriting Services</text>
</svg> 