<svg xmlns="http://www.w3.org/2000/svg" width="260" height="60" viewBox="0 0 260 60">
  <!-- Simple, clean pigeon silhouette matching the provided image -->
  <path d="M53,17c-3,3-8,7-12,10c-4,3-8,7-12,10c-4,3-7,4-10,3c-3-1-4-4-4-7c0-3,2-5,4-7c-4,1-7,0-9-2
         c-2-2-2-5,0-7c2-2,5-3,8-2c3,1,5,3,6,5c-1-4,1-7,3-10c-4,0-6-1-7-2c-1-1-1-3,0-4c1-1,3-2,5-2c3,0,7,1,12,4
         c3-3,7-5,11-5c3,0,5,1,6,3c1,2,0,4-1,6c3-1,6-1,8,0c2,1,3,3,3,5c0,2-1,4-3,5C58,14,55,15,53,17z" fill="#2e3e44"/>
  
  <!-- Brand name in Space Mono style -->
  <text x="70" y="32" font-family="Space Mono, monospace" font-size="16" font-weight="700" fill="#2e3e44">PIGEON PIPELINE</text>
  
  <!-- Tagline in Poppins style -->
  <text x="70" y="47" font-family="Poppins, sans-serif" font-size="10" font-weight="300" fill="#2e3e44">Email Copywriting Services</text>
</svg> 