<svg xmlns="http://www.w3.org/2000/svg" xmlns:xlink="http://www.w3.org/1999/xlink" width="500" zoomAndPan="magnify" viewBox="0 0 375 374.999991" height="500" preserveAspectRatio="xMidYMid meet" version="1.0"><defs><clipPath id="026569e96e"><path d="M 83 4.171875 L 298.484375 4.171875 L 298.484375 367 L 83 367 Z M 83 4.171875 " clip-rule="nonzero"/></clipPath></defs><g clip-path="url(#026569e96e)"><path fill="#030303" d="M 207.773438 152.796875 L 202.703125 163.585938 C 202.195312 164.671875 200.820312 165.179688 199.734375 164.671875 L 195.824219 162.859375 L 109.578125 358.960938 C 102.554688 374.964844 76.484375 363.59375 84.8125 346.9375 L 180.6875 155.765625 L 176.199219 153.664062 C 175.113281 153.15625 174.605469 151.78125 175.113281 150.695312 L 180.253906 139.6875 L 152.808594 113.617188 C 151.648438 112.53125 150.707031 111.300781 151.359375 109.996094 L 200.023438 6.082031 C 200.675781 4.78125 202.339844 4.199219 203.714844 4.851562 L 296.40625 48.300781 C 297.855469 48.953125 298.507812 50.617188 297.855469 51.921875 L 249.191406 155.835938 C 248.542969 157.140625 247.019531 157.210938 245.5 157.066406 Z M 205.453125 10.355469 C 204.152344 9.777344 202.703125 10.210938 202.050781 11.371094 L 203.136719 14.265625 L 209.148438 12.09375 Z M 213.273438 14.046875 L 215.449219 20.058594 L 221.457031 17.886719 Z M 225.65625 19.839844 L 227.832031 25.851562 L 233.839844 23.679688 Z M 237.96875 25.636719 L 240.140625 31.644531 L 246.152344 29.472656 Z M 250.351562 31.429688 L 252.523438 37.4375 L 258.535156 35.265625 Z M 262.660156 37.222656 L 264.835938 43.230469 L 270.84375 41.058594 Z M 275.042969 42.941406 L 277.21875 48.953125 L 283.226562 46.78125 Z M 287.355469 48.734375 L 289.527344 54.746094 L 292.425781 53.660156 C 292.929688 52.429688 292.28125 50.980469 291.046875 50.402344 Z M 291.339844 56.121094 L 290.179688 56.554688 L 290.613281 57.714844 Z M 289.527344 60.105469 L 288.441406 57.207031 L 281.128906 59.886719 L 283.808594 67.199219 L 286.703125 66.113281 Z M 285.546875 68.503906 L 284.386719 68.9375 L 284.820312 70.097656 Z M 283.734375 72.414062 L 282.648438 69.519531 L 275.335938 72.199219 L 278.015625 79.511719 L 280.910156 78.425781 Z M 279.824219 80.816406 L 278.664062 81.25 L 279.101562 82.40625 Z M 277.941406 84.796875 L 276.855469 81.902344 L 269.542969 84.582031 L 272.222656 91.894531 L 275.117188 90.808594 Z M 274.03125 93.199219 L 272.871094 93.632812 L 273.308594 94.789062 Z M 272.148438 97.109375 L 271.0625 94.210938 L 263.75 96.890625 L 266.425781 104.203125 L 269.324219 103.117188 Z M 268.238281 105.507812 L 267.078125 105.941406 L 267.515625 107.101562 Z M 266.355469 109.492188 L 265.269531 106.59375 L 257.953125 109.273438 L 260.632812 116.585938 L 263.53125 115.5 Z M 262.445312 117.890625 L 261.285156 118.324219 L 261.71875 119.484375 Z M 260.5625 121.875 L 259.476562 118.976562 L 252.160156 121.65625 L 254.839844 128.96875 L 257.738281 127.882812 Z M 256.652344 130.203125 L 255.492188 130.636719 L 255.925781 131.792969 Z M 254.769531 134.183594 L 253.683594 131.289062 L 246.367188 133.96875 L 249.046875 141.28125 L 251.945312 140.195312 Z M 250.859375 142.585938 L 249.699219 143.019531 L 250.132812 144.179688 Z M 248.832031 146.0625 L 247.960938 143.597656 L 242.097656 145.699219 C 243.472656 145.914062 244.847656 146.132812 246.222656 146.277344 C 247.164062 146.496094 248.179688 146.496094 248.832031 146.0625 Z M 238.257812 145.121094 L 235.652344 137.878906 L 228.335938 140.558594 L 229.277344 143.238281 C 232.246094 143.886719 235.21875 144.539062 238.257812 145.121094 Z M 227.105469 142.585938 L 226.597656 141.0625 L 224.5 141.859375 C 225.296875 142.148438 226.164062 142.367188 227.105469 142.585938 Z M 221.386719 140.992188 L 225.949219 139.324219 L 223.269531 132.011719 L 215.953125 134.691406 L 217.835938 139.90625 C 218.996094 140.265625 220.15625 140.628906 221.386719 140.992188 Z M 215.59375 139.109375 L 214.214844 135.34375 L 209.726562 136.9375 C 211.609375 137.734375 213.566406 138.457031 215.59375 139.109375 Z M 207.121094 135.921875 L 213.566406 133.605469 L 210.886719 126.292969 L 203.570312 128.96875 L 205.960938 135.488281 C 206.324219 135.632812 206.683594 135.777344 207.121094 135.921875 Z M 203.644531 134.402344 L 201.90625 129.550781 L 197.054688 131.289062 C 199.15625 132.375 201.398438 133.460938 203.644531 134.402344 Z M 194.738281 130.128906 L 201.253906 127.8125 L 198.574219 120.5 L 191.261719 123.175781 L 193.578125 129.621094 C 193.941406 129.765625 194.300781 129.910156 194.738281 130.128906 Z M 191.117188 128.175781 L 189.523438 123.757812 L 185.828125 125.132812 C 187.566406 126.148438 189.304688 127.234375 191.117188 128.175781 Z M 183.730469 123.828125 L 188.871094 121.945312 L 186.191406 114.632812 L 178.878906 117.3125 L 180.472656 121.730469 C 181.558594 122.453125 182.644531 123.175781 183.730469 123.828125 Z M 177.863281 119.992188 L 177.140625 117.964844 L 175.765625 118.46875 C 176.488281 118.976562 177.140625 119.484375 177.863281 119.992188 Z M 173.882812 117.167969 L 176.488281 116.226562 L 173.808594 108.910156 L 166.640625 111.519531 C 169.03125 113.472656 171.492188 115.355469 173.882812 117.167969 Z M 163.597656 108.984375 L 161.5 103.117188 L 159.035156 103.988281 C 159.179688 104.785156 159.832031 105.582031 160.558594 106.234375 C 161.570312 107.175781 162.585938 108.117188 163.597656 108.984375 Z M 159.761719 101.816406 L 160.917969 101.378906 L 160.484375 100.222656 Z M 161.570312 97.832031 L 162.65625 100.730469 L 169.972656 98.050781 L 167.292969 90.734375 L 164.394531 91.820312 Z M 165.480469 89.433594 L 166.640625 88.996094 L 166.207031 87.839844 Z M 167.363281 85.449219 L 168.449219 88.347656 L 175.765625 85.667969 L 173.085938 78.351562 L 170.1875 79.4375 Z M 171.273438 77.121094 L 172.433594 76.6875 L 172 75.527344 Z M 173.15625 73.140625 L 174.242188 76.035156 L 181.558594 73.355469 L 178.878906 66.113281 L 175.980469 67.199219 Z M 177.066406 64.738281 L 178.226562 64.304688 L 177.792969 63.144531 Z M 178.949219 60.757812 L 180.035156 63.652344 L 187.351562 60.972656 L 184.671875 53.660156 L 181.773438 54.746094 Z M 182.859375 52.429688 L 184.019531 51.992188 L 183.585938 50.835938 Z M 184.742188 48.445312 L 185.828125 51.34375 L 193.144531 48.664062 L 190.464844 41.347656 L 187.566406 42.433594 Z M 188.652344 40.046875 L 189.8125 39.609375 L 189.378906 38.453125 Z M 190.535156 36.0625 L 191.625 38.960938 L 198.9375 36.28125 L 196.183594 29.039062 L 193.289062 30.125 Z M 194.449219 27.734375 L 195.605469 27.300781 L 195.171875 26.140625 Z M 196.257812 23.753906 L 197.34375 26.648438 L 204.65625 23.96875 L 201.976562 16.726562 L 199.082031 17.8125 Z M 200.242188 15.351562 L 201.398438 14.917969 L 200.964844 13.757812 Z M 163.308594 102.46875 L 165.988281 109.78125 L 173.300781 107.101562 L 170.621094 99.789062 Z M 211.101562 13.398438 L 203.789062 16.078125 L 206.46875 23.390625 L 213.78125 20.710938 Z M 223.414062 19.191406 L 216.097656 21.871094 L 218.777344 29.183594 L 226.09375 26.503906 Z M 214.363281 22.449219 L 207.046875 25.128906 L 209.726562 32.441406 L 217.039062 29.761719 Z M 205.308594 25.78125 L 197.996094 28.460938 L 200.675781 35.773438 L 207.988281 33.09375 Z M 235.796875 24.984375 L 228.480469 27.664062 L 231.160156 34.976562 L 238.476562 32.296875 Z M 226.671875 28.242188 L 219.359375 30.921875 L 222.039062 38.234375 L 229.351562 35.554688 Z M 217.621094 31.574219 L 210.304688 34.253906 L 212.984375 41.566406 L 220.300781 38.886719 Z M 208.566406 34.832031 L 201.253906 37.4375 L 203.933594 44.753906 L 211.246094 42.074219 Z M 199.515625 38.089844 L 192.203125 40.769531 L 194.882812 48.082031 L 202.195312 45.402344 Z M 248.105469 30.777344 L 240.792969 33.457031 L 243.472656 40.769531 L 250.785156 38.089844 Z M 239.054688 34.035156 L 231.742188 36.714844 L 234.421875 44.027344 L 241.734375 41.347656 Z M 230.003906 37.367188 L 222.6875 40.046875 L 225.367188 47.359375 L 232.683594 44.679688 Z M 220.949219 40.625 L 213.636719 43.304688 L 216.316406 50.617188 L 223.628906 47.9375 Z M 211.828125 43.882812 L 204.511719 46.5625 L 207.191406 53.875 L 214.507812 51.199219 Z M 202.773438 47.140625 L 195.460938 49.820312 L 198.140625 57.136719 L 205.453125 54.457031 Z M 193.722656 50.472656 L 186.410156 53.082031 L 189.089844 60.394531 L 196.402344 57.714844 Z M 260.488281 36.570312 L 253.175781 39.25 L 255.855469 46.5625 L 263.167969 43.882812 Z M 251.367188 39.828125 L 244.050781 42.507812 L 246.730469 49.820312 L 254.042969 47.140625 Z M 242.3125 43.085938 L 235 45.765625 L 237.679688 53.082031 L 244.992188 50.402344 Z M 233.261719 46.417969 L 225.949219 49.097656 L 228.628906 56.410156 L 235.941406 53.730469 Z M 224.210938 49.675781 L 216.894531 52.355469 L 219.574219 59.667969 L 226.890625 56.992188 Z M 215.15625 52.933594 L 207.84375 55.613281 L 210.523438 62.929688 L 217.835938 60.25 Z M 206.035156 56.265625 L 198.792969 58.875 L 201.472656 66.1875 L 208.785156 63.507812 Z M 196.980469 59.523438 L 189.667969 62.203125 L 192.347656 69.519531 L 199.660156 66.839844 Z M 187.929688 62.785156 L 180.617188 65.464844 L 183.296875 72.777344 L 190.609375 70.097656 Z M 272.800781 42.363281 L 265.484375 45.042969 L 268.164062 52.355469 L 275.480469 49.675781 Z M 263.75 45.621094 L 256.433594 48.300781 L 259.113281 55.613281 L 266.425781 52.933594 Z M 254.695312 48.878906 L 247.382812 51.558594 L 250.0625 58.875 L 257.375 56.195312 Z M 245.644531 52.210938 L 238.332031 54.890625 L 241.011719 62.203125 L 248.324219 59.523438 Z M 236.519531 55.46875 L 229.207031 58.148438 L 231.886719 65.464844 L 239.199219 62.785156 Z M 227.46875 58.726562 L 220.15625 61.40625 L 222.832031 68.722656 L 230.148438 66.042969 Z M 218.417969 62.058594 L 211.101562 64.667969 L 213.78125 71.980469 L 221.097656 69.300781 Z M 209.363281 65.316406 L 202.050781 67.996094 L 204.730469 75.3125 L 212.042969 72.632812 Z M 200.3125 68.578125 L 193 71.257812 L 195.679688 78.570312 L 202.992188 75.890625 Z M 191.1875 71.90625 L 183.875 74.585938 L 186.554688 81.902344 L 193.867188 79.222656 Z M 182.136719 75.167969 L 174.824219 77.847656 L 177.503906 85.160156 L 184.816406 82.480469 Z M 285.183594 48.082031 L 277.867188 50.761719 L 280.546875 58.078125 L 287.863281 55.398438 Z M 276.058594 51.414062 L 268.746094 54.09375 L 271.425781 61.40625 L 278.738281 58.726562 Z M 267.007812 54.671875 L 259.691406 57.351562 L 262.371094 64.667969 L 269.6875 61.988281 Z M 257.953125 57.933594 L 250.640625 60.609375 L 253.320312 67.925781 L 260.632812 65.246094 Z M 248.902344 61.261719 L 241.589844 63.941406 L 244.269531 71.257812 L 251.582031 68.578125 Z M 239.851562 64.523438 L 232.539062 67.199219 L 235.21875 74.515625 L 242.53125 71.835938 Z M 230.800781 67.78125 L 223.484375 70.460938 L 226.164062 77.773438 L 233.480469 75.09375 Z M 221.675781 71.113281 L 214.363281 73.789062 L 217.039062 81.105469 L 224.355469 78.425781 Z M 212.625 74.371094 L 205.308594 77.050781 L 207.988281 84.363281 L 215.304688 81.683594 Z M 203.570312 77.628906 L 196.257812 80.308594 L 198.9375 87.621094 L 206.25 84.941406 Z M 194.519531 80.960938 L 187.207031 83.640625 L 189.886719 90.953125 L 197.199219 88.273438 Z M 185.46875 84.21875 L 178.152344 86.898438 L 180.832031 94.210938 L 188.148438 91.53125 Z M 176.34375 87.476562 L 169.03125 90.15625 L 171.710938 97.46875 L 179.023438 94.789062 Z M 279.390625 60.464844 L 272.074219 63.144531 L 274.753906 70.460938 L 282.070312 67.78125 Z M 270.339844 63.726562 L 263.023438 66.40625 L 265.703125 73.71875 L 273.015625 71.039062 Z M 261.214844 67.054688 L 253.898438 69.734375 L 256.578125 77.050781 L 263.894531 74.371094 Z M 252.160156 70.316406 L 244.847656 72.996094 L 247.527344 80.308594 L 254.839844 77.628906 Z M 243.109375 73.574219 L 235.796875 76.253906 L 238.476562 83.566406 L 245.789062 80.886719 Z M 234.058594 76.90625 L 226.746094 79.582031 L 229.421875 86.898438 L 236.738281 84.21875 Z M 225.007812 80.164062 L 217.691406 82.84375 L 220.371094 90.15625 L 227.6875 87.476562 Z M 215.882812 83.421875 L 208.566406 86.101562 L 211.246094 93.414062 L 218.5625 90.734375 Z M 206.832031 86.753906 L 199.515625 89.433594 L 202.195312 96.746094 L 209.507812 94.066406 Z M 197.777344 90.011719 L 190.464844 92.691406 L 193.144531 100.003906 L 200.457031 97.324219 Z M 188.726562 93.269531 L 181.414062 95.949219 L 184.09375 103.261719 L 191.40625 100.585938 Z M 179.675781 96.601562 L 172.359375 99.28125 L 175.039062 106.59375 L 182.355469 103.914062 Z M 273.597656 72.847656 L 266.28125 75.527344 L 268.960938 82.84375 L 276.277344 80.164062 Z M 264.542969 76.109375 L 257.230469 78.789062 L 259.910156 86.101562 L 267.222656 83.421875 Z M 255.492188 79.367188 L 248.179688 82.046875 L 250.859375 89.359375 L 258.171875 86.679688 Z M 246.367188 82.699219 L 239.054688 85.378906 L 241.734375 92.691406 L 249.046875 90.011719 Z M 237.316406 85.957031 L 230.003906 88.636719 L 232.683594 95.949219 L 239.996094 93.269531 Z M 228.265625 89.214844 L 220.949219 91.894531 L 223.628906 99.207031 L 230.945312 96.527344 Z M 219.214844 92.472656 L 211.898438 95.152344 L 214.578125 102.46875 L 221.890625 99.789062 Z M 210.160156 95.804688 L 202.847656 98.484375 L 205.527344 105.796875 L 212.839844 103.117188 Z M 201.035156 99.0625 L 193.722656 101.742188 L 196.402344 109.058594 L 203.714844 106.378906 Z M 191.984375 102.320312 L 184.671875 105 L 187.351562 112.316406 L 194.664062 109.636719 Z M 182.933594 105.652344 L 175.621094 108.332031 L 178.300781 115.644531 L 185.613281 112.96875 Z M 267.804688 85.160156 L 260.488281 87.839844 L 263.167969 95.152344 L 270.484375 92.472656 Z M 258.75 88.417969 L 251.4375 91.097656 L 254.117188 98.410156 L 261.429688 95.730469 Z M 249.699219 91.75 L 242.386719 94.429688 L 245.066406 101.742188 L 252.378906 99.0625 Z M 240.574219 95.007812 L 233.261719 97.6875 L 235.941406 105 L 243.253906 102.320312 Z M 231.523438 98.265625 L 224.210938 100.945312 L 226.890625 108.261719 L 234.203125 105.582031 Z M 222.472656 101.597656 L 215.15625 104.277344 L 217.835938 111.589844 L 225.152344 108.910156 Z M 213.421875 104.855469 L 206.105469 107.535156 L 208.785156 114.851562 L 216.097656 112.171875 Z M 204.367188 108.117188 L 197.054688 110.792969 L 199.734375 118.109375 L 207.046875 115.429688 Z M 195.242188 111.445312 L 187.929688 114.125 L 190.609375 121.441406 L 197.921875 118.761719 Z M 262.011719 97.542969 L 254.695312 100.222656 L 257.375 107.535156 L 264.691406 104.855469 Z M 252.957031 100.800781 L 245.644531 103.480469 L 248.324219 110.792969 L 255.636719 108.117188 Z M 243.90625 104.058594 L 236.59375 106.738281 L 239.273438 114.054688 L 246.585938 111.375 Z M 234.855469 107.390625 L 227.539062 110.070312 L 230.21875 117.382812 L 237.460938 114.632812 Z M 225.730469 110.648438 L 218.417969 113.328125 L 221.097656 120.644531 L 228.410156 117.964844 Z M 216.679688 113.910156 L 209.363281 116.585938 L 212.042969 123.902344 L 219.359375 121.222656 Z M 207.625 117.238281 L 200.3125 119.917969 L 202.992188 127.234375 L 210.304688 124.554688 Z M 256.21875 109.851562 L 248.902344 112.53125 L 251.582031 119.847656 L 258.894531 117.167969 Z M 247.164062 113.113281 L 239.851562 115.792969 L 242.53125 123.105469 L 249.84375 120.425781 Z M 238.113281 116.441406 L 230.800781 119.121094 L 233.480469 126.4375 L 240.792969 123.757812 Z M 229.0625 119.703125 L 221.746094 122.382812 L 224.425781 129.695312 L 231.742188 127.015625 Z M 220.007812 122.960938 L 212.695312 125.640625 L 215.375 132.953125 L 222.6875 130.273438 Z M 250.425781 122.234375 L 243.109375 124.914062 L 245.789062 132.230469 L 253.101562 129.550781 Z M 241.371094 125.496094 L 234.058594 128.175781 L 236.738281 135.488281 L 244.050781 132.808594 Z M 232.320312 128.753906 L 225.007812 131.433594 L 227.6875 138.746094 L 235 136.066406 Z M 244.703125 134.546875 L 237.390625 137.226562 L 240.070312 144.539062 L 247.382812 141.859375 Z M 99.875 347.300781 C 96.976562 345.925781 93.5 347.15625 92.125 350.125 C 90.75 353.023438 91.980469 356.496094 94.949219 357.875 C 97.847656 359.25 101.320312 358.019531 102.699219 355.050781 C 104 352.082031 102.769531 348.675781 99.875 347.300781 Z M 99.875 347.300781 " fill-opacity="1" fill-rule="evenodd"/></g><path fill="#1a1a19" d="M 195.824219 162.859375 L 193.359375 168.4375 L 177.9375 161.050781 L 180.6875 155.765625 Z M 195.824219 162.859375 " fill-opacity="1" fill-rule="evenodd"/><path fill="#1a1a19" d="M 102.117188 325.140625 C 97.195312 320.652344 118.703125 280.027344 137.746094 241.429688 C 154.910156 206.671875 170.042969 173.578125 174.316406 175.535156 C 189.015625 182.339844 113.125 335.207031 102.117188 325.140625 Z M 102.117188 325.140625 " fill-opacity="1" fill-rule="evenodd"/></svg>